<?xml version="1.0" encoding="UTF-8"?>
<svg width="900" height="600" viewBox="0 0 900 600" fill="none" xmlns="http://www.w3.org/2000/svg">
  <defs>
    <linearGradient id="frontendGradient" x1="0%" y1="0%" x2="100%" y2="100%">
      <stop offset="0%" style="stop-color:#3B82F6;stop-opacity:1" />
      <stop offset="100%" style="stop-color:#1D4ED8;stop-opacity:1" />
    </linearGradient>
    <linearGradient id="apiGradient" x1="0%" y1="0%" x2="100%" y2="100%">
      <stop offset="0%" style="stop-color:#10B981;stop-opacity:1" />
      <stop offset="100%" style="stop-color:#059669;stop-opacity:1" />
    </linearGradient>
    <linearGradient id="aiGradient" x1="0%" y1="0%" x2="100%" y2="100%">
      <stop offset="0%" style="stop-color:#8B5CF6;stop-opacity:1" />
      <stop offset="100%" style="stop-color:#7C3AED;stop-opacity:1" />
    </linearGradient>
    <linearGradient id="storageGradient" x1="0%" y1="0%" x2="100%" y2="100%">
      <stop offset="0%" style="stop-color:#F59E0B;stop-opacity:1" />
      <stop offset="100%" style="stop-color:#D97706;stop-opacity:1" />
    </linearGradient>
    <filter id="shadow" x="-20%" y="-20%" width="140%" height="140%">
      <feDropShadow dx="2" dy="4" stdDeviation="6" flood-opacity="0.15"/>
    </filter>
  </defs>
  
  <!-- Title -->
  <text x="450" y="30" text-anchor="middle" fill="#3B82F6" font-family="Arial, sans-serif" font-size="28" font-weight="bold">PeakPath Architecture</text>
  <text x="450" y="55" text-anchor="middle" fill="#6366F1" font-family="Arial, sans-serif" font-size="16">Full-Stack AI Coaching Platform</text>
  
  <!-- Frontend Layer -->
  <g transform="translate(50, 80)">
    <rect x="0" y="0" width="800" height="120" rx="12" fill="url(#frontendGradient)" opacity="0.1" filter="url(#shadow)"/>
    <rect x="8" y="8" width="784" height="104" rx="8" fill="white"/>
    
    <text x="400" y="30" text-anchor="middle" fill="url(#frontendGradient)" font-family="Arial, sans-serif" font-size="20" font-weight="bold">Frontend Layer</text>
    
    <!-- React Components -->
    <g transform="translate(50, 45)">
      <rect x="0" y="0" width="120" height="50" rx="6" fill="url(#frontendGradient)" opacity="0.1"/>
      <text x="60" y="20" text-anchor="middle" fill="#1F2937" font-family="Arial, sans-serif" font-size="12" font-weight="bold">React 18</text>
      <text x="60" y="35" text-anchor="middle" fill="#6B7280" font-family="Arial, sans-serif" font-size="10">Components</text>
    </g>
    
    <!-- Next.js -->
    <g transform="translate(200, 45)">
      <rect x="0" y="0" width="120" height="50" rx="6" fill="url(#frontendGradient)" opacity="0.1"/>
      <text x="60" y="20" text-anchor="middle" fill="#1F2937" font-family="Arial, sans-serif" font-size="12" font-weight="bold">Next.js 15</text>
      <text x="60" y="35" text-anchor="middle" fill="#6B7280" font-family="Arial, sans-serif" font-size="10">App Router</text>
    </g>
    
    <!-- TypeScript -->
    <g transform="translate(350, 45)">
      <rect x="0" y="0" width="120" height="50" rx="6" fill="url(#frontendGradient)" opacity="0.1"/>
      <text x="60" y="20" text-anchor="middle" fill="#1F2937" font-family="Arial, sans-serif" font-size="12" font-weight="bold">TypeScript</text>
      <text x="60" y="35" text-anchor="middle" fill="#6B7280" font-family="Arial, sans-serif" font-size="10">Type Safety</text>
    </g>
    
    <!-- shadcn/ui -->
    <g transform="translate(500, 45)">
      <rect x="0" y="0" width="120" height="50" rx="6" fill="url(#frontendGradient)" opacity="0.1"/>
      <text x="60" y="20" text-anchor="middle" fill="#1F2937" font-family="Arial, sans-serif" font-size="12" font-weight="bold">shadcn/ui</text>
      <text x="60" y="35" text-anchor="middle" fill="#6B7280" font-family="Arial, sans-serif" font-size="10">UI Components</text>
    </g>
    
    <!-- Tailwind CSS -->
    <g transform="translate(650, 45)">
      <rect x="0" y="0" width="120" height="50" rx="6" fill="url(#frontendGradient)" opacity="0.1"/>
      <text x="60" y="20" text-anchor="middle" fill="#1F2937" font-family="Arial, sans-serif" font-size="12" font-weight="bold">Tailwind CSS</text>
      <text x="60" y="35" text-anchor="middle" fill="#6B7280" font-family="Arial, sans-serif" font-size="10">Styling</text>
    </g>
  </g>
  
  <!-- API Layer -->
  <g transform="translate(50, 220)">
    <rect x="0" y="0" width="800" height="120" rx="12" fill="url(#apiGradient)" opacity="0.1" filter="url(#shadow)"/>
    <rect x="8" y="8" width="784" height="104" rx="8" fill="white"/>
    
    <text x="400" y="30" text-anchor="middle" fill="url(#apiGradient)" font-family="Arial, sans-serif" font-size="20" font-weight="bold">API Layer (Serverless)</text>
    
    <!-- Upload API -->
    <g transform="translate(100, 45)">
      <rect x="0" y="0" width="140" height="50" rx="6" fill="url(#apiGradient)" opacity="0.1"/>
      <text x="70" y="20" text-anchor="middle" fill="#1F2937" font-family="Arial, sans-serif" font-size="12" font-weight="bold">/api/upload</text>
      <text x="70" y="35" text-anchor="middle" fill="#6B7280" font-family="Arial, sans-serif" font-size="10">PDF Processing</text>
    </g>
    
    <!-- Coach API -->
    <g transform="translate(280, 45)">
      <rect x="0" y="0" width="140" height="50" rx="6" fill="url(#apiGradient)" opacity="0.1"/>
      <text x="70" y="20" text-anchor="middle" fill="#1F2937" font-family="Arial, sans-serif" font-size="12" font-weight="bold">/api/coach</text>
      <text x="70" y="35" text-anchor="middle" fill="#6B7280" font-family="Arial, sans-serif" font-size="10">AI Coaching</text>
    </g>
    
    <!-- Stream API -->
    <g transform="translate(460, 45)">
      <rect x="0" y="0" width="140" height="50" rx="6" fill="url(#apiGradient)" opacity="0.1"/>
      <text x="70" y="20" text-anchor="middle" fill="#1F2937" font-family="Arial, sans-serif" font-size="12" font-weight="bold">/api/stream</text>
      <text x="70" y="35" text-anchor="middle" fill="#6B7280" font-family="Arial, sans-serif" font-size="10">Real-time Chat</text>
    </g>
  </g>
  
  <!-- AI Services Layer -->
  <g transform="translate(50, 360)">
    <rect x="0" y="0" width="400" height="120" rx="12" fill="url(#aiGradient)" opacity="0.1" filter="url(#shadow)"/>
    <rect x="8" y="8" width="384" height="104" rx="8" fill="white"/>
    
    <text x="200" y="30" text-anchor="middle" fill="url(#aiGradient)" font-family="Arial, sans-serif" font-size="20" font-weight="bold">AI Services</text>
    
    <!-- Claude AI -->
    <g transform="translate(50, 45)">
      <rect x="0" y="0" width="140" height="50" rx="6" fill="url(#aiGradient)" opacity="0.1"/>
      <text x="70" y="20" text-anchor="middle" fill="#1F2937" font-family="Arial, sans-serif" font-size="12" font-weight="bold">Claude AI</text>
      <text x="70" y="35" text-anchor="middle" fill="#6B7280" font-family="Arial, sans-serif" font-size="10">Anthropic API</text>
    </g>
    
    <!-- PDF Parser -->
    <g transform="translate(210, 45)">
      <rect x="0" y="0" width="140" height="50" rx="6" fill="url(#aiGradient)" opacity="0.1"/>
      <text x="70" y="20" text-anchor="middle" fill="#1F2937" font-family="Arial, sans-serif" font-size="12" font-weight="bold">PDF Parser</text>
      <text x="70" y="35" text-anchor="middle" fill="#6B7280" font-family="Arial, sans-serif" font-size="10">AI-Powered</text>
    </g>
  </g>
  
  <!-- Storage Layer -->
  <g transform="translate(470, 360)">
    <rect x="0" y="0" width="380" height="120" rx="12" fill="url(#storageGradient)" opacity="0.1" filter="url(#shadow)"/>
    <rect x="8" y="8" width="364" height="104" rx="8" fill="white"/>
    
    <text x="190" y="30" text-anchor="middle" fill="url(#storageGradient)" font-family="Arial, sans-serif" font-size="20" font-weight="bold">Storage &amp; Persistence</text>
    
    <!-- LocalStorage -->
    <g transform="translate(50, 45)">
      <rect x="0" y="0" width="120" height="50" rx="6" fill="url(#storageGradient)" opacity="0.1"/>
      <text x="60" y="20" text-anchor="middle" fill="#1F2937" font-family="Arial, sans-serif" font-size="12" font-weight="bold">LocalStorage</text>
      <text x="60" y="35" text-anchor="middle" fill="#6B7280" font-family="Arial, sans-serif" font-size="10">Browser</text>
    </g>
    
    <!-- Session Management -->
    <g transform="translate(190, 45)">
      <rect x="0" y="0" width="120" height="50" rx="6" fill="url(#storageGradient)" opacity="0.1"/>
      <text x="60" y="20" text-anchor="middle" fill="#1F2937" font-family="Arial, sans-serif" font-size="12" font-weight="bold">Sessions</text>
      <text x="60" y="35" text-anchor="middle" fill="#6B7280" font-family="Arial, sans-serif" font-size="10">Multi-Profile</text>
    </g>
  </g>
  
  <!-- Deployment -->
  <g transform="translate(50, 500)">
    <rect x="0" y="0" width="800" height="80" rx="12" fill="#6B7280" opacity="0.1" filter="url(#shadow)"/>
    <rect x="8" y="8" width="784" height="64" rx="8" fill="white"/>
    
    <text x="400" y="30" text-anchor="middle" fill="#374151" font-family="Arial, sans-serif" font-size="20" font-weight="bold">Deployment &amp; Hosting</text>
    
    <!-- Vercel -->
    <g transform="translate(300, 40)">
      <rect x="0" y="0" width="200" height="30" rx="6" fill="#000000" opacity="0.8"/>
      <text x="100" y="20" text-anchor="middle" fill="white" font-family="Arial, sans-serif" font-size="14" font-weight="bold">Vercel Platform</text>
    </g>
  </g>
  
  <!-- Data Flow Arrows -->
  <g stroke="#9CA3AF" stroke-width="2" fill="none" opacity="0.6">
    <!-- Frontend to API -->
    <path d="M450 200L450 220M445 215L450 220L455 215"/>
    
    <!-- API to AI Services -->
    <path d="M350 340L250 360M255 355L250 360L255 365"/>
    
    <!-- API to Storage -->
    <path d="M550 340L660 360M655 355L660 360L655 365"/>
  </g>
  
  <!-- Privacy Badge -->
  <g transform="translate(750, 520)">
    <rect x="0" y="0" width="100" height="40" rx="20" fill="#10B981" opacity="0.1"/>
    <text x="50" y="15" text-anchor="middle" fill="#059669" font-family="Arial, sans-serif" font-size="10" font-weight="bold">PRIVACY</text>
    <text x="50" y="28" text-anchor="middle" fill="#059669" font-family="Arial, sans-serif" font-size="8">CLIENT-SIDE</text>
  </g>
</svg>