<?xml version="1.0" encoding="UTF-8"?>
<svg width="96" height="96" viewBox="0 0 96 96" fill="none" xmlns="http://www.w3.org/2000/svg">
  <!-- Brain/AI Icon with modern gradient -->
  <defs>
    <linearGradient id="aiGradient" x1="0%" y1="0%" x2="100%" y2="100%">
      <stop offset="0%" style="stop-color:#4F46E5;stop-opacity:1" />
      <stop offset="100%" style="stop-color:#7C3AED;stop-opacity:1" />
    </linearGradient>
    <linearGradient id="nodeGradient" x1="0%" y1="0%" x2="100%" y2="100%">
      <stop offset="0%" style="stop-color:#06B6D4;stop-opacity:1" />
      <stop offset="100%" style="stop-color:#3B82F6;stop-opacity:1" />
    </linearGradient>
  </defs>
  
  <!-- Main brain/chip shape -->
  <path d="M48 12C60.2 12 71.4 17.2 79.6 25.4C87.8 33.6 93 44.8 93 57C93 69.2 87.8 80.4 79.6 88.6C71.4 96.8 60.2 102 48 102C35.8 102 24.6 96.8 16.4 88.6C8.2 80.4 3 69.2 3 57C3 44.8 8.2 33.6 16.4 25.4C24.6 17.2 35.8 12 48 12Z" fill="url(#aiGradient)" opacity="0.1"/>
  
  <!-- Circuit pattern -->
  <g stroke="url(#aiGradient)" stroke-width="2" fill="none">
    <!-- Horizontal lines -->
    <line x1="20" y1="35" x2="40" y2="35"/>
    <line x1="56" y1="35" x2="76" y2="35"/>
    <line x1="20" y1="48" x2="40" y2="48"/>
    <line x1="56" y1="48" x2="76" y2="48"/>
    <line x1="20" y1="61" x2="40" y2="61"/>
    <line x1="56" y1="61" x2="76" y2="61"/>
    
    <!-- Vertical connecting lines -->
    <line x1="48" y1="25" x2="48" y2="71"/>
    <line x1="30" y1="28" x2="30" y2="68"/>
    <line x1="66" y1="28" x2="66" y2="68"/>
  </g>
  
  <!-- Neural nodes -->
  <circle cx="30" cy="35" r="4" fill="url(#nodeGradient)"/>
  <circle cx="48" cy="35" r="4" fill="url(#nodeGradient)"/>
  <circle cx="66" cy="35" r="4" fill="url(#nodeGradient)"/>
  <circle cx="30" cy="48" r="4" fill="url(#nodeGradient)"/>
  <circle cx="48" cy="48" r="6" fill="url(#nodeGradient)"/>
  <circle cx="66" cy="48" r="4" fill="url(#nodeGradient)"/>
  <circle cx="30" cy="61" r="4" fill="url(#nodeGradient)"/>
  <circle cx="48" cy="61" r="4" fill="url(#nodeGradient)"/>
  <circle cx="66" cy="61" r="4" fill="url(#nodeGradient)"/>
  
  <!-- Central processing indicator -->
  <circle cx="48" cy="48" r="3" fill="white"/>
  <animate attributeName="opacity" values="0.5;1;0.5" dur="2s" repeatCount="indefinite"/>
</svg>